# xmcd
#
# Track frame offsets:
#	150
#	11620
#	24275
#	36687
#	49780
#	61482
#	72785
#	83257
#	95727
#	105345
#	113680
#	125440
#	137582
#	150422
#	160125
#	172582
#	183705
#	195835
#	207815
#	219790
#	232050
#	240712
#	258762
#	272020
#	285252
#
# Disc length: 3964 seconds
#
# Revision: 1
# Processed by: cddbd v1.5.2PL0 Copyright (c) Steve Scherf et al.
# Submitted via: audiograbber 1.83.01
#
DISCID=3f0f7a19
DTITLE=Various Artist - Stompin' 18: Country Blues Pounders
DYEAR=1900
DGENRE=Blues
TTITLE0=Jimmie Newsome - I'm Afraid I Love You
TTITLE1=Pee Wee Hughes - I'm A Country Boy
TTITLE2=James Walton - Miss Jesse James
TTITLE3=Big Bill and His Guitar - Little City Woman
TTITLE4=Alonzo Scales - My Baby Likes To Shuffle
TTITLE5=Jimmie Newsome - Do That Thing
TTITLE6=Lick, Slick and Slide - I Got Drunk
TTITLE7=Harmonica 'Blues King' Harris - I Need You Pretty Baby For My Own
TTITLE8=Mule Thomas - Blow My Baby Back Home
TTITLE9=Lazy Slim Jim - Wine Head Baby
TTITLE10=The Bees - Tough Enough
TTITLE11=Alvin Smith - On My Way
TTITLE12=Jimmie Newsome - Long Gone Lonesome Blues
TTITLE13=Robert Jefferson - I Got My Equalizer
TTITLE14=Mr. Rain - Who Dat
TTITLE15=Guitar Tommy Moore - I Ain't Botherin' Nobody
TTITLE16=Tommy Brown - Southern Women
TTITLE17=Frank Floyd - Rock A Little Baby
TTITLE18=Otis Hinton - Walking Downhill
TTITLE19=J. and J. Deuces - Sweet Woman Blues
TTITLE20=The Wild Child - Down In The Chile
TTITLE21=Guitar Tommy Moore - Your Car Machine
TTITLE22=Emright and Mattie - That Minute There With You
TTITLE23=Cledus Harrison - Don't Run
TTITLE24=Jimmie Newsome - My Little Child
EXTD=
EXTT0=
EXTT1=
EXTT2=
EXTT3=
EXTT4=
EXTT5=
EXTT6=
EXTT7=
EXTT8=
EXTT9=
EXTT10=
EXTT11=
EXTT12=
EXTT13=
EXTT14=
EXTT15=
EXTT16=
EXTT17=
EXTT18=
EXTT19=
EXTT20=
EXTT21=
EXTT22=
EXTT23=
EXTT24=
PLAYORDER=
